<svg xmlns="http://www.w3.org/2000/svg" width="450" height="200" viewBox="0 0 450 200" role="img"><rect x="0.5" y="0.5" width="449" height="199" rx="12" fill="#ffffff" stroke="#d0d7de"/><text x="18" y="37" font-size="20">🎄</text><text x="50" y="31" font-size="15.5" font-weight="600" fill="#1f2328" font-family="-apple-system,'Segoe UI',sans-serif">Advent of Code</text><text x="432" y="30" font-size="12" text-anchor="end" fill="#639922" font-family="ui-monospace, monospace">7 years</text><polygon points="47.6,65.0 50.8,73.6 59.9,74.0 52.8,79.7 55.2,88.5 47.6,83.5 39.9,88.5 42.4,79.7 35.2,74.0 44.4,73.6" fill="#e3b341"/><text x="47.6" y="108" font-size="11" text-anchor="middle" fill="#1f2328" font-family="ui-monospace, monospace">2018</text><text x="47.6" y="121" font-size="9.5" text-anchor="middle" fill="#8b949e" font-family="ui-monospace, monospace">py</text><polygon points="106.7,65.0 109.9,73.6 119.1,74.0 111.9,79.7 114.4,88.5 106.7,83.5 99.1,88.5 101.5,79.7 94.4,74.0 103.5,73.6" fill="#e3b341"/><text x="106.7" y="108" font-size="11" text-anchor="middle" fill="#1f2328" font-family="ui-monospace, monospace">2019</text><text x="106.7" y="121" font-size="9.5" text-anchor="middle" fill="#8b949e" font-family="ui-monospace, monospace">kt</text><polygon points="165.9,65.0 169.1,73.6 178.2,74.0 171.0,79.7 173.5,88.5 165.9,83.5 158.2,88.5 160.7,79.7 153.5,74.0 162.6,73.6" fill="#e3b341"/><text x="165.9" y="108" font-size="11" text-anchor="middle" fill="#1f2328" font-family="ui-monospace, monospace">2020</text><text x="165.9" y="121" font-size="9.5" text-anchor="middle" fill="#8b949e" font-family="ui-monospace, monospace">kt</text><polygon points="225.0,65.0 228.2,73.6 237.4,74.0 230.2,79.7 232.6,88.5 225.0,83.5 217.4,88.5 219.8,79.7 212.6,74.0 221.8,73.6" fill="#e3b341"/><text x="225.0" y="108" font-size="11" text-anchor="middle" fill="#1f2328" font-family="ui-monospace, monospace">2021</text><text x="225.0" y="121" font-size="9.5" text-anchor="middle" fill="#8b949e" font-family="ui-monospace, monospace">kt</text><polygon points="284.1,65.0 287.4,73.6 296.5,74.0 289.3,79.7 291.8,88.5 284.1,83.5 276.5,88.5 279.0,79.7 271.8,74.0 280.9,73.6" fill="#e3b341"/><text x="284.1" y="108" font-size="11" text-anchor="middle" fill="#1f2328" font-family="ui-monospace, monospace">2022</text><text x="284.1" y="121" font-size="9.5" text-anchor="middle" fill="#8b949e" font-family="ui-monospace, monospace">kt</text><polygon points="343.3,65.0 346.5,73.6 355.6,74.0 348.5,79.7 350.9,88.5 343.3,83.5 335.6,88.5 338.1,79.7 330.9,74.0 340.1,73.6" fill="#e3b341"/><text x="343.3" y="108" font-size="11" text-anchor="middle" fill="#1f2328" font-family="ui-monospace, monospace">2023</text><text x="343.3" y="121" font-size="9.5" text-anchor="middle" fill="#8b949e" font-family="ui-monospace, monospace">kt</text><polygon points="402.4,65.0 405.6,73.6 414.8,74.0 407.6,79.7 410.1,88.5 402.4,83.5 394.8,88.5 397.2,79.7 390.1,74.0 399.2,73.6" fill="#e3b341"/><text x="402.4" y="108" font-size="11" text-anchor="middle" fill="#1f2328" font-family="ui-monospace, monospace">2024</text><text x="402.4" y="121" font-size="9.5" text-anchor="middle" fill="#8b949e" font-family="ui-monospace, monospace">kt</text><text x="18" y="150" font-size="12.5" fill="#656d76" font-family="-apple-system,'Segoe UI',sans-serif">Enterprise-style Kotlin. Tests, design, the lot —</text><text x="18" y="168" font-size="12.5" fill="#656d76" font-family="-apple-system,'Segoe UI',sans-serif">every year.</text></svg>