<svg xmlns="http://www.w3.org/2000/svg" width="912" height="104" viewBox="0 0 912 104" role="img"><rect x="0.5" y="0.5" width="911" height="103" rx="12" fill="#ffffff" stroke="#d0d7de"/><rect x="28" y="22" width="14" height="14" rx="4" fill="#BA7517"/><text x="52" y="34" font-size="15.5" font-weight="600" fill="#1f2328" font-family="-apple-system,'Segoe UI',sans-serif">Beyond the editor</text><text x="205.56000000000006" y="42" font-size="12.5" fill="#656d76" font-family="-apple-system,'Segoe UI',sans-serif">When the laptop is shut.</text><rect x="28.0" y="58" width="151.2" height="34" rx="8" fill="#BA7517" fill-opacity="0.1" stroke="#BA7517" stroke-opacity="0.25"/><text x="42" y="80" font-size="15">📖</text><text x="64" y="79" font-size="12.5" fill="#633806" font-family="-apple-system,'Segoe UI',sans-serif">Fantasy fiction</text><rect x="189.2" y="58" width="136.6" height="34" rx="8" fill="#BA7517" fill-opacity="0.1" stroke="#BA7517" stroke-opacity="0.25"/><text x="203.20000000000002" y="80" font-size="15">🏋️</text><text x="225.20000000000002" y="79" font-size="12.5" fill="#633806" font-family="-apple-system,'Segoe UI',sans-serif">Gym &amp; Fitness</text><rect x="335.8" y="58" width="165.8" height="34" rx="8" fill="#BA7517" fill-opacity="0.1" stroke="#BA7517" stroke-opacity="0.25"/><text x="349.84000000000003" y="80" font-size="15">🗾</text><text x="371.84000000000003" y="79" font-size="12.5" fill="#633806" font-family="-apple-system,'Segoe UI',sans-serif">Language learning</text><rect x="511.6" y="58" width="85.7" height="34" rx="8" fill="#BA7517" fill-opacity="0.1" stroke="#BA7517" stroke-opacity="0.25"/><text x="525.6" y="80" font-size="15">🎸</text><text x="547.6" y="79" font-size="12.5" fill="#633806" font-family="-apple-system,'Segoe UI',sans-serif">Guitar</text><rect x="607.3" y="58" width="71.1" height="34" rx="8" fill="#BA7517" fill-opacity="0.1" stroke="#BA7517" stroke-opacity="0.25"/><text x="621.28" y="80" font-size="15">🍜</text><text x="643.28" y="79" font-size="12.5" fill="#633806" font-family="-apple-system,'Segoe UI',sans-serif">Food</text></svg>