<svg xmlns="http://www.w3.org/2000/svg" width="450" height="200" viewBox="0 0 450 200" role="img"><defs><linearGradient id="area-dataviz-l" x1="0" y1="0" x2="0" y2="1"><stop offset="0" stop-color="#378ADD" stop-opacity="0.32"/><stop offset="1" stop-color="#378ADD" stop-opacity="0"/></linearGradient></defs><rect x="0.5" y="0.5" width="449" height="199" rx="12" fill="#ffffff" stroke="#d0d7de"/><path d="M18,124C28.0,122.0 58.0,112.7 78.0,112.0C98.0,111.3 118.0,122.3 138.0,120.0C158.0,117.7 178.0,100.0 198.0,98.0C218.0,96.0 238.0,109.3 258.0,108.0C278.0,106.7 298.0,90.7 318.0,90.0C338.0,89.3 359.0,103.2 378.0,104.0C397.0,104.8 423.0,96.5 432.0,95.0L432,140L18,140Z" fill="url(#area-dataviz-l)"/><path d="M18,124C28.0,122.0 58.0,112.7 78.0,112.0C98.0,111.3 118.0,122.3 138.0,120.0C158.0,117.7 178.0,100.0 198.0,98.0C218.0,96.0 238.0,109.3 258.0,108.0C278.0,106.7 298.0,90.7 318.0,90.0C338.0,89.3 359.0,103.2 378.0,104.0C397.0,104.8 423.0,96.5 432.0,95.0" fill="none" stroke="#378ADD" stroke-width="2" stroke-linecap="round"/><text x="18" y="33" font-size="20">📊</text><text x="50" y="31" font-size="15.5" font-weight="600" fill="#1f2328" font-family="-apple-system,'Segoe UI',sans-serif">Data visualisation</text><text x="18" y="62" font-size="12.5" fill="#656d76" font-family="-apple-system,'Segoe UI',sans-serif">Quantified-self dashboards from my own sleep &amp;</text><text x="18" y="80" font-size="12.5" fill="#656d76" font-family="-apple-system,'Segoe UI',sans-serif">activity data.</text><rect x="18.0" y="152" width="91.6" height="22" rx="11" fill="#378ADD" fill-opacity="0.1" stroke="#378ADD" stroke-opacity="0.35"/><circle cx="32" cy="163" r="3" fill="#378ADD"/><text x="42" y="167" font-size="11.5" fill="#0C447C" font-family="ui-monospace, monospace">sleep ★2</text><rect x="116.6" y="152" width="131.6" height="22" rx="11" fill="#378ADD" fill-opacity="0.1" stroke="#378ADD" stroke-opacity="0.35"/><circle cx="130.57999999999998" cy="163" r="3" fill="#378ADD"/><text x="140.57999999999998" y="167" font-size="11.5" fill="#0C447C" font-family="ui-monospace, monospace">activity-trends</text><rect x="255.2" y="152" width="73.6" height="22" rx="11" fill="#378ADD" fill-opacity="0.1" stroke="#378ADD" stroke-opacity="0.35"/><circle cx="269.17999999999995" cy="163" r="3" fill="#378ADD"/><text x="279.17999999999995" y="167" font-size="11.5" fill="#0C447C" font-family="ui-monospace, monospace">clocks</text></svg>