<svg xmlns="http://www.w3.org/2000/svg" width="450" height="200" viewBox="0 0 450 200" role="img"><rect x="0.5" y="0.5" width="449" height="199" rx="12" fill="#0d1117" stroke="#30363d"/><rect x="18" y="19" width="14" height="14" rx="4" fill="#378ADD"/><text x="42" y="31" font-size="15.5" font-weight="600" fill="#e6edf3" font-family="-apple-system,'Segoe UI',sans-serif">Data visualisation</text><text x="18" y="62" font-size="12.5" fill="#9198a1" font-family="-apple-system,'Segoe UI',sans-serif">Quantified-self dashboards from my own sleep &amp;</text><text x="18" y="80" font-size="12.5" fill="#9198a1" font-family="-apple-system,'Segoe UI',sans-serif">activity data.</text><polyline points="18,118 66,108 114,113 162,96 210,103 258,88 306,98 354,90 402,104 432,96" fill="none" stroke="#378ADD" stroke-width="1.6"/><polyline points="18,132 66,128 114,135 162,124 210,131 258,120 306,126 354,118 402,128 432,122" fill="none" stroke="#5DCAA5" stroke-width="1.6"/><rect x="18.0" y="150" width="74.6" height="20" rx="6" fill="#378ADD" fill-opacity="0.2"/><text x="55.3" y="164" font-size="11.5" text-anchor="middle" fill="#85B7EB" font-family="ui-monospace, monospace">sleep ★2</text><rect x="98.6" y="150" width="114.6" height="20" rx="6" fill="#378ADD" fill-opacity="0.2"/><text x="155.9" y="164" font-size="11.5" text-anchor="middle" fill="#85B7EB" font-family="ui-monospace, monospace">activity-trends</text><rect x="219.2" y="150" width="56.6" height="20" rx="6" fill="#378ADD" fill-opacity="0.2"/><text x="247.5" y="164" font-size="11.5" text-anchor="middle" fill="#85B7EB" font-family="ui-monospace, monospace">clocks</text></svg>