<svg xmlns="http://www.w3.org/2000/svg" width="912" height="150" viewBox="0 0 912 150" role="img"><rect x="0.5" y="0.5" width="911" height="149" rx="12" fill="#f6f8fa" stroke="#d0d7de"/><text x="28" y="50" font-size="26" font-weight="600" fill="#1f2328" font-family="-apple-system,'Segoe UI',sans-serif">Thomas Plumpton</text><text x="28" y="78" font-size="13.5" fill="#656d76" font-family="-apple-system,'Segoe UI',sans-serif">Staff engineer @ Matillion · Kotlin · Spring · React · 学習中</text><text x="28" y="120" font-size="12" fill="#8b949e" font-family="ui-monospace, monospace">📗 now reading · Head First Design Patterns — Freeman &amp; Robson</text><path d="M612,40 C628,40 628,40 644,40" fill="none" stroke="#378ADD" stroke-width="2" opacity="0.85"/><path d="M644,40 C660,40 660,64 676,64" fill="none" stroke="#1D9E75" stroke-width="2" opacity="0.85"/><path d="M676,64 C692,64 692,40 708,40" fill="none" stroke="#378ADD" stroke-width="2" opacity="0.85"/><path d="M708,40 C724,40 724,88 740,88" fill="none" stroke="#D85A30" stroke-width="2" opacity="0.85"/><path d="M740,88 C756,88 756,64 772,64" fill="none" stroke="#1D9E75" stroke-width="2" opacity="0.85"/><path d="M772,64 C788,64 788,40 804,40" fill="none" stroke="#378ADD" stroke-width="2" opacity="0.85"/><path d="M804,40 C820,40 820,112 836,112" fill="none" stroke="#7F77DD" stroke-width="2" opacity="0.85"/><path d="M836,112 C852,112 852,40 868,40" fill="none" stroke="#378ADD" stroke-width="2" opacity="0.85"/><circle cx="612" cy="40" r="5" fill="#378ADD" stroke="#ffffff" stroke-width="2"/><circle cx="644" cy="40" r="5" fill="#378ADD" stroke="#ffffff" stroke-width="2"/><circle cx="676" cy="64" r="5" fill="#1D9E75" stroke="#ffffff" stroke-width="2"/><circle cx="708" cy="40" r="5" fill="#378ADD" stroke="#ffffff" stroke-width="2"/><circle cx="740" cy="88" r="5" fill="#D85A30" stroke="#ffffff" stroke-width="2"/><circle cx="772" cy="64" r="5" fill="#1D9E75" stroke="#ffffff" stroke-width="2"/><circle cx="804" cy="40" r="5" fill="#378ADD" stroke="#ffffff" stroke-width="2"/><circle cx="836" cy="112" r="5" fill="#7F77DD" stroke="#ffffff" stroke-width="2"/><circle cx="868" cy="40" r="5" fill="#378ADD" stroke="#ffffff" stroke-width="2"/><text x="612" y="140" font-size="10.5" fill="#8b949e" font-family="ui-monospace, monospace">rendered with react-git-log</text></svg>