<svg xmlns="http://www.w3.org/2000/svg" width="912" height="150" viewBox="0 0 912 150" role="img"><rect x="0.5" y="0.5" width="911" height="149" rx="12" fill="#f6f8fa" stroke="#d0d7de"/><text x="28" y="48" font-size="26" font-weight="600" fill="#1f2328" font-family="-apple-system,'Segoe UI',sans-serif">Thomas Plumpton</text><text x="28" y="78" font-size="13.5" font-family="-apple-system,'Segoe UI',sans-serif"><tspan fill="#656d76">Staff engineer @ </tspan><tspan fill="#0969da">Matillion</tspan><tspan fill="#656d76"> · Kotlin · Spring · React · 学習中</tspan></text><g stroke="#D97757" stroke-width="1.52" stroke-linecap="round"><line x1="35.0" y1="106.4" x2="35.0" y2="100.0"/><line x1="35.8" y1="106.6" x2="38.1" y2="102.6"/><line x1="36.4" y1="107.2" x2="41.9" y2="104.0"/><line x1="36.6" y1="108.0" x2="41.2" y2="108.0"/><line x1="36.4" y1="108.8" x2="41.9" y2="112.0"/><line x1="35.8" y1="109.4" x2="38.1" y2="113.4"/><line x1="35.0" y1="109.6" x2="35.0" y2="116.0"/><line x1="34.2" y1="109.4" x2="31.9" y2="113.4"/><line x1="33.6" y1="108.8" x2="28.1" y2="112.0"/><line x1="33.4" y1="108.0" x2="28.8" y2="108.0"/><line x1="33.6" y1="107.2" x2="28.1" y2="104.0"/><line x1="34.2" y1="106.6" x2="31.9" y2="102.6"/></g><circle cx="35" cy="108" r="1.20" fill="#D97757"/><text x="50" y="112" font-size="12" font-family="-apple-system,'Segoe UI',sans-serif"><tspan fill="#656d76">All-in on </tspan><tspan fill="#0969da">Claude</tspan><tspan fill="#656d76"> for agentic dev — living the current best practices.</tspan></text><path d="M612,44 C628.75,44 628.75,44 645.5,44" fill="none" stroke="#378ADD" stroke-width="2" opacity="0.9"/><path d="M645.5,44 C695.75,44 695.75,44 746,44" fill="none" stroke="#378ADD" stroke-width="2" opacity="0.9"/><path d="M746,44 C796.25,44 796.25,44 846.5,44" fill="none" stroke="#378ADD" stroke-width="2" opacity="0.9"/><path d="M846.5,44 C863.25,44 863.25,44 880,44" fill="none" stroke="#378ADD" stroke-width="2" opacity="0.9"/><path d="M645.5,44 C662.25,44 662.25,72 679,72" fill="none" stroke="#1D9E75" stroke-width="2" opacity="0.9"/><path d="M679,72 C695.75,72 695.75,72 712.5,72" fill="none" stroke="#1D9E75" stroke-width="2" opacity="0.9"/><path d="M712.5,72 C729.25,72 729.25,44 746,44" fill="none" stroke="#1D9E75" stroke-width="2" opacity="0.9"/><path d="M746,44 C762.75,44 762.75,100 779.5,100" fill="none" stroke="#D85A30" stroke-width="2" opacity="0.9"/><path d="M779.5,100 C796.25,100 796.25,100 813,100" fill="none" stroke="#D85A30" stroke-width="2" opacity="0.9"/><path d="M813,100 C829.75,100 829.75,44 846.5,44" fill="none" stroke="#D85A30" stroke-width="2" opacity="0.9"/><circle cx="612" cy="44" r="5" fill="#378ADD" stroke="#f6f8fa" stroke-width="2"/><circle cx="645.5" cy="44" r="5" fill="#378ADD" stroke="#f6f8fa" stroke-width="2"/><circle cx="679" cy="72" r="5" fill="#1D9E75" stroke="#f6f8fa" stroke-width="2"/><circle cx="712.5" cy="72" r="5" fill="#1D9E75" stroke="#f6f8fa" stroke-width="2"/><circle cx="746" cy="44" r="5" fill="#378ADD" stroke="#f6f8fa" stroke-width="2"/><circle cx="779.5" cy="100" r="5" fill="#D85A30" stroke="#f6f8fa" stroke-width="2"/><circle cx="813" cy="100" r="5" fill="#D85A30" stroke="#f6f8fa" stroke-width="2"/><circle cx="846.5" cy="44" r="5" fill="#378ADD" stroke="#f6f8fa" stroke-width="2"/><circle cx="880" cy="44" r="5" fill="#378ADD" stroke="#f6f8fa" stroke-width="2"/></svg>