<svg xmlns="http://www.w3.org/2000/svg" width="912" height="92" viewBox="0 0 912 92" role="img"><rect x="0.5" y="0.5" width="911" height="91" rx="12" fill="#0d1117" stroke="#30363d"/><text x="28" y="42" font-size="24" font-weight="600" fill="#e6edf3" font-family="-apple-system,'Segoe UI',sans-serif">47</text><text x="28" y="62" font-size="11.5" fill="#9198a1" font-family="-apple-system,'Segoe UI',sans-serif">public repos</text><text x="150" y="42" font-size="24" font-weight="600" fill="#e6edf3" font-family="-apple-system,'Segoe UI',sans-serif">56</text><text x="150" y="62" font-size="11.5" fill="#9198a1" font-family="-apple-system,'Segoe UI',sans-serif">total stars</text><rect x="360.0" y="34" width="142.1" height="10" rx="3" fill="#a97bff"/><rect x="504.1" y="34" width="115.9" height="10" rx="3" fill="#3178c6"/><rect x="622.0" y="34" width="115.9" height="10" rx="3" fill="#b07219"/><rect x="739.9" y="34" width="89.7" height="10" rx="3" fill="#f1e05a"/><rect x="831.6" y="34" width="24.2" height="10" rx="3" fill="#e34c26"/><rect x="857.8" y="34" width="11.1" height="10" rx="3" fill="#89e051"/><circle cx="364" cy="60" r="4" fill="#a97bff"/><text x="373" y="64" font-size="11" fill="#9198a1" font-family="-apple-system,'Segoe UI',sans-serif">Kotlin</text><circle cx="434.96000000000004" cy="60" r="4" fill="#3178c6"/><text x="443.96000000000004" y="64" font-size="11" fill="#9198a1" font-family="-apple-system,'Segoe UI',sans-serif">TypeScript</text><circle cx="530.5600000000001" cy="60" r="4" fill="#b07219"/><text x="539.5600000000001" y="64" font-size="11" fill="#9198a1" font-family="-apple-system,'Segoe UI',sans-serif">Java</text><circle cx="589.2" cy="60" r="4" fill="#f1e05a"/><text x="598.2" y="64" font-size="11" fill="#9198a1" font-family="-apple-system,'Segoe UI',sans-serif">JavaScript</text></svg>